<?xml version="1.0" standalone="no"?>
<!DOCTYPE svg PUBLIC "-//W3C//DTD SVG 20010904//EN"
 "http://www.w3.org/TR/2001/REC-SVG-20010904/DTD/svg10.dtd">
<svg version="1.0" xmlns="http://www.w3.org/2000/svg"
 width="200.000000pt" height="200.000000pt" viewBox="0 0 200.000000 200.000000"
 preserveAspectRatio="xMidYMid meet">

<g transform="translate(0.000000,200.000000) scale(0.100000,-0.100000)"
fill="#000000" stroke="none">
<path d="M544 1951 c-44 -20 -78 -60 -89 -104 -7 -25 -11 -27 -65 -27 -65 0
-92 -18 -73 -48 7 -12 27 -18 70 -20 l59 -3 10 -89 c12 -104 41 -157 100 -185
45 -21 115 -16 153 12 64 48 94 158 43 158 -19 0 -27 -9 -38 -40 -25 -74 -90
-106 -142 -69 -34 23 -49 62 -55 141 l-6 73 186 2 c167 3 187 5 197 21 15 25
-16 47 -65 47 -32 0 -37 3 -42 28 -13 63 -93 122 -167 122 -19 0 -53 -9 -76
-19z m157 -80 c16 -16 29 -34 29 -40 0 -7 -38 -11 -109 -11 -105 0 -109 1
-104 20 10 36 51 60 105 60 41 0 54 -5 79 -29z"/>
<path d="M1250 1838 c-29 -15 -53 -37 -68 -63 -22 -38 -23 -47 -18 -161 3 -67
10 -132 15 -146 8 -22 4 -29 -39 -66 -33 -29 -61 -66 -85 -115 -68 -137 -55
-283 35 -410 l42 -58 -42 -140 c-23 -77 -39 -146 -36 -154 4 -11 22 -15 66
-15 33 0 60 -3 60 -7 0 -31 59 -454 65 -462 3 -6 40 -11 85 -11 65 0 81 3 88
18 5 9 22 117 37 240 l29 222 58 0 c45 0 60 4 65 16 3 9 -7 63 -24 119 l-30
102 44 23 c64 34 147 128 174 197 17 44 23 79 23 148 1 81 -2 97 -31 157 -17
37 -50 87 -73 111 -36 39 -128 95 -182 111 -10 3 -18 15 -18 26 0 17 -5 21
-26 18 -20 -2 -29 -12 -39 -41 -25 -74 -77 -102 -133 -73 -42 22 -59 67 -67
182 -8 120 4 156 62 181 70 29 140 -9 152 -83 8 -48 36 -67 57 -39 16 21 11
61 -12 107 -40 78 -151 109 -234 66z m313 -436 c173 -93 223 -318 108 -486
-26 -37 -111 -106 -131 -106 -3 0 -12 22 -19 49 -12 47 -11 55 38 214 55 178
59 202 35 211 -9 3 -117 6 -240 6 -123 0 -224 4 -224 8 0 4 20 28 45 52 l45
44 39 -22 c21 -12 53 -22 70 -22 42 0 104 32 125 65 20 30 32 28 109 -13z
m-30 -179 c3 -5 -17 -78 -44 -163 l-48 -155 45 -150 c25 -82 47 -158 50 -167
5 -16 -2 -18 -46 -18 -62 0 -61 2 -84 -180 -9 -74 -21 -170 -27 -212 l-11 -78
-37 0 -36 0 -28 221 c-16 122 -31 227 -34 235 -3 9 -21 14 -54 14 -34 0 -49 4
-49 13 0 8 21 83 46 167 l46 154 -46 151 c-25 83 -46 157 -46 163 0 9 52 12
199 12 110 0 202 -3 204 -7z m-412 -204 c30 -98 34 -117 19 -104 -29 26 -60
108 -67 177 -3 35 -2 59 3 55 4 -4 25 -62 45 -128z"/>
<path d="M373 1393 c-10 -4 -13 -85 -13 -358 0 -383 -3 -365 54 -365 21 0 23
-9 65 -307 24 -170 48 -314 53 -320 14 -18 162 -18 176 0 5 6 29 150 53 319
42 297 44 308 65 308 57 0 54 -18 54 365 0 313 -2 354 -16 359 -19 7 -473 7
-491 -1z m447 -358 l0 -295 -22 0 c-13 0 -29 -4 -36 -8 -8 -6 -27 -113 -52
-298 -22 -159 -43 -299 -45 -312 -5 -18 -12 -22 -45 -22 -22 0 -40 1 -40 3 0
1 -20 141 -44 311 -30 207 -49 312 -58 317 -7 5 -23 9 -35 9 l-23 0 0 295 0
295 200 0 200 0 0 -295z"/>
<path d="M202 628 c-17 -17 -17 -479 0 -496 8 -8 45 -12 100 -12 76 0 89 2 98
19 15 29 14 473 -2 489 -16 16 -180 16 -196 0z m138 -248 l0 -200 -40 0 -40 0
0 200 0 200 40 0 40 0 0 -200z"/>
</g>
</svg>
